# xmcd
#
# Track frame offsets: 
#        150
#        13991
#        40132
#        83411
#        100970
#        114473
#        128357
#        140379
#        167886
#        190357
#        214106
#        233301
#        247726
#
# Disc length: 3447 seconds
#
# Revision: 5
# Processed by: cddbd v1.5.2PL0 Copyright (c) Steve Scherf et al.
# Submitted via: ExactAudioCopy v0.99pb4
#
DISCID=9c0d750d
DTITLE=Van Morrison - The Van Morrison Collection Vol 1
DYEAR=2000
DGENRE=Rock
TTITLE0=Brown-Eyed Girl
TTITLE1=He Ain't Give You None
TTITLE2=T.B. Sheets
TTITLE3=Spanish Rose
TTITLE4=Goodbye Baby (Baby Goodbye)
TTITLE5=Ro Ro Rosey
TTITLE6=Midnight Special
TTITLE7=Beside You
TTITLE8=It's All Right
TTITLE9=Madame George
TTITLE10=Joe Harper Saturday Morning
TTITLE11=Chick-A-Boom
TTITLE12=I Love You (The Smile You Smile)
EXTD=\n\n
EXTT0=
EXTT1=
EXTT2=
EXTT3=
EXTT4=
EXTT5=
EXTT6=
EXTT7=
EXTT8=
EXTT9=
EXTT10=
EXTT11=
EXTT12=
PLAYORDER=
